<svg xmlns="http://www.w3.org/2000/svg" width="170.071" height="49.543" viewBox="0 0 170.071 49.543">
  <g id="goteam-logo_light_" data-name="goteam-logo (light)" transform="translate(0 7.452)">
    <g id="Group_15" data-name="Group 15" transform="translate(0 -7.452)">
      <path id="Path_9" data-name="Path 9" d="M48.59,37.26a13.586,13.586,0,1,1,5.29-1.068,13.591,13.591,0,0,1-5.29,1.068m0-21.532a7.941,7.941,0,1,0,7.941,7.941,7.942,7.942,0,0,0-7.941-7.941" transform="translate(-5.269 -0.459)" fill="#fff"/>
      <path id="Path_10" data-name="Path 10" d="M84.829,8.184V18.271c0,2.928,1.425,4.332,4.353,4.332h2.533L86.6,27.585c-5.761,0-7.369-3.174-7.369-8.891V8.184H73.812V3.135h5.417V-1.971l5.6-5.478V3.135h6.4V8.184Z" transform="translate(-16.044 7.45)" fill="#fff"/>
      <path id="Path_11" data-name="Path 11" d="M115.231,22.887a20.29,20.29,0,0,1-.141,2.357H96.271a6.819,6.819,0,0,0,7.21,5.852c2.96,0,5.344-1.394,5.857-3.536h5.573c-.861,5.19-5.55,8.586-11.571,8.586a12.576,12.576,0,0,1-12.7-12.87,12.483,12.483,0,0,1,12.614-12.65A11.882,11.882,0,0,1,115.23,22.887Zm-6.082-2.409c-.477-2.813-2.813-4.774-6.177-4.774A6.344,6.344,0,0,0,96.4,20.478Z" transform="translate(-14.121 -0.543)" fill="#fff"/>
      <path id="Path_12" data-name="Path 12" d="M148.153,11.127V35.646h-5.6V32.81a11.748,11.748,0,0,1-8.41,3.336c-6.819,0-11.994-5.7-11.994-12.77s5.175-12.75,11.994-12.75a11.757,11.757,0,0,1,8.41,3.334V11.127Zm-5.6,12.249a7.274,7.274,0,0,0-7.481-7.416,7.428,7.428,0,1,0,0,14.856,7.28,7.28,0,0,0,7.481-7.439" transform="translate(-18.782 -0.542)" fill="#fff"/>
      <path id="Path_13" data-name="Path 13" d="M194.512,20.665v14.98h-5.63V21.905c0-3.659-2.023-5.92-5.315-5.92-2.775,0-5.492,1.78-5.492,5.92V35.645h-5.6V21.905c0-3.68-2.051-5.92-5.379-5.92-2.7,0-5.43,1.714-5.43,5.92V35.645h-5.6V11.127h5.6v2.664a9.012,9.012,0,0,1,7.148-3.165c3.6,0,6.259,1.356,7.832,4.384a8.8,8.8,0,0,1,7.85-4.384c5.939,0,10.016,3.881,10.016,10.039" transform="translate(-24.441 -0.542)" fill="#fff"/>
      <path id="Path_14" data-name="Path 14" d="M13.592,37.261a13.591,13.591,0,1,1,0-27.181v5.946a7.516,7.516,0,1,0,7.645,7.645h5.946A13.59,13.59,0,0,1,13.592,37.261" transform="translate(0 -0.46)" fill="#fff"/>
      <path id="Path_15" data-name="Path 15" d="M30.194,20.273H24.248V16.026H20V10.08H30.194Z" transform="translate(-3.012 -0.46)" fill="#fff"/>
      <path id="Path_16" data-name="Path 16" d="M13.936,52.412a13.505,13.505,0,0,1-9.61-3.98,13.717,13.717,0,0,1-2.039-2.595L6.8,41.427a7.613,7.613,0,0,0,14.777-2.605V26.3l.217-.219h5.729V38.822a13.59,13.59,0,0,1-13.591,13.59" transform="translate(-0.344 -2.87)" fill="#fff"/>
    </g>
  </g>
</svg>
